<svg xmlns="http://www.w3.org/2000/svg" width="384" height="64" viewBox="0 0 384 64"><g transform="translate(0 0)"><g class="nc-icon-wrapper" fill="#000000"><path d="M38,5H34V1a1,1,0,0,0-1-1H31a1,1,0,0,0-1,1V5H26a1,1,0,0,0-1,1V8a1,1,0,0,0,1,1h4v5a1,1,0,0,0,1,1h2a1,1,0,0,0,1-1V9h4a1,1,0,0,0,1-1V6A1,1,0,0,0,38,5Z" fill="#000000"></path><path d="M13,52H51a4,4,0,0,1,4,4v5a1,1,0,0,1-1,1H10a1,1,0,0,1-1-1V56A4,4,0,0,1,13,52Z" fill="#000000" data-color="color-2"></path><path d="M27,29a15,15,0,1,1,29.843,2.054A27.688,27.688,0,0,1,47.659,50H16.341A27.688,27.688,0,0,1,7.157,31.054,14.954,14.954,0,0,1,30.4,16.607a16.948,16.948,0,0,0-.416,24.409A1,1,0,1,0,31.4,39.6,14.905,14.905,0,0,1,27,29Z" fill="#000000"></path></g></g><g transform="translate(64 0)"><g class="nc-icon-wrapper" fill="#000000"><path d="M42.5,20H39.534a11,11,0,1,0-15.069,0H21.5a2.5,2.5,0,0,0,0,5h21a2.5,2.5,0,0,0,0-5Z" fill="#000000"></path><path d="M13,53H51a4,4,0,0,1,4,4v5a1,1,0,0,1-1,1H10a1,1,0,0,1-1-1V57A4,4,0,0,1,13,53Z" fill="#000000" data-color="color-2"></path><path d="M38.313,27H25.687A40.65,40.65,0,0,1,13.951,51h36.1A40.65,40.65,0,0,1,38.313,27Z" fill="#000000"></path></g></g><g transform="translate(128 0)"><g class="nc-icon-wrapper" fill="#000000"><path data-color="color-2" d="M13,52H51a4,4,0,0,1,4,4v5a1,1,0,0,1-1,1H10a1,1,0,0,1-1-1V56A4,4,0,0,1,13,52Z" fill="#000000"></path><path d="M49,2H45a1,1,0,0,0-.948.683L42.279,8h-4.05L36.973,2.767A1,1,0,0,0,36,2H28a1,1,0,0,0-.973.767L25.771,8h-4.05L19.948,2.684A1,1,0,0,0,19,2H15a1,1,0,0,0-1,1V13l.23.639L22,23H42l7.77-9.365A1,1,0,0,0,50,13V3A1,1,0,0,0,49,2Z" fill="#000000"></path><polygon points="48.549 50 42 25 22 25 15.451 50 48.549 50" fill="#000000"></polygon></g></g><g transform="translate(192 0)"><g class="nc-icon-wrapper" fill="#000000"><path d="M13,52H51a4,4,0,0,1,4,4v5a1,1,0,0,1-1,1H10a1,1,0,0,1-1-1V56A4,4,0,0,1,13,52Z" fill="#000000" data-color="color-2"></path><path d="M16,50H48V45.139l6.32-22.351a7,7,0,0,1-3.562-2.166L39.489,31.172,34.158,13.656a6.941,6.941,0,0,1-4.316,0L24.511,31.172,13.242,20.622A7,7,0,0,1,9.68,22.788L16,45.139Z" fill="#000000"></path><circle cx="8" cy="16" r="5" fill="#000000"></circle><circle cx="32" cy="7" r="5" fill="#000000"></circle><circle cx="56" cy="16" r="5" fill="#000000"></circle></g></g><g transform="translate(256 0)"><g class="nc-icon-wrapper" fill="#000000"><path d="M51,52H13a4,4,0,0,0-4,4v5a1,1,0,0,0,1,1H54a1,1,0,0,0,1-1V56A4,4,0,0,0,51,52Z" fill="#000000" data-color="color-2"></path><path d="M48,50,37.674,27.411A10.977,10.977,0,0,0,38.4,9.063l-6.574,9.509a1,1,0,1,1-1.644-1.136L36.1,8.848a5,5,0,1,0-8.678-.842,10.982,10.982,0,0,0-1.1,19.405L16,50Z" fill="#000000"></path></g></g><g transform="translate(320 0)"><g class="nc-icon-wrapper" fill="#000000"><path data-color="color-2" d="M13,52.983H51a4,4,0,0,1,4,4v5a1,1,0,0,1-1,1H10a1,1,0,0,1-1-1v-5A4,4,0,0,1,13,52.983Z" fill="#000000"></path><path d="M52,30.983A29.876,29.876,0,0,0,23.034,1a.981.981,0,0,0-.729.28,1,1,0,0,0-.3.719V5.983L11.5,17.432a1,1,0,0,0-.121,1.19l2.2,3.672a1,1,0,0,0,1.175.435L26,18.983a13.7,13.7,0,0,1,2,7c0,3.524-2.4,6.376-4.938,9.4C20.6,38.3,17.9,41.536,16.67,45.983h0a18.69,18.69,0,0,0-.67,5H44.316a30.313,30.313,0,0,0,3.632-5h0A29.874,29.874,0,0,0,52,30.983ZM43.271,47.6A1,1,0,0,1,41.7,46.367,24.741,24.741,0,0,0,47,30.983,24.973,24.973,0,0,0,24.886,6.154a1,1,0,1,1,.167-1.993l.061.007A26.971,26.971,0,0,1,49,30.983,26.7,26.7,0,0,1,43.271,47.6Z" fill="#000000"></path></g></g></svg>